<svg xmlns="http://www.w3.org/2000/svg" width="64" height="55" viewBox="0 0 67 58"><path fill-rule="evenodd" fill="#fff" d="M51 45a3 3 0 010-6 9 9 0 009-9 8.968 8.968 0 00-3.674-7.243 8.957 8.957 0 00-1.285-.79c-.055-.029-.111-.055-.167-.081a8.94 8.94 0 00-.561-.249c-.083-.033-.168-.061-.252-.092a8.572 8.572 0 00-.519-.175c-.116-.034-.236-.062-.354-.09-.152-.04-.303-.08-.457-.11-.162-.032-.328-.052-.493-.075-.119-.016-.236-.039-.356-.05A9 9 0 0051 21c-.094 0-.185.01-.278.014a16.84 16.84 0 00-.342-1.512c-.034-.12-.079-.237-.114-.357a16.777 16.777 0 00-.364-1.112c-.041-.11-.092-.214-.135-.324-.148-.369-.3-.736-.473-1.093-.042-.085-.09-.167-.133-.252a16.929 16.929 0 00-.599-1.098C45.595 10.318 40.192 7 34 7s-11.595 3.318-14.562 8.266c-.215.357-.41.725-.599 1.098-.043.085-.091.167-.133.252-.172.357-.325.724-.473 1.093-.043.11-.094.214-.135.324-.137.364-.252.737-.364 1.112-.036.12-.08.236-.114.357a16.82 16.82 0 00-.342 1.512C17.185 21.01 17.094 21 17 21c-.298 0-.592.016-.882.045-.12.011-.237.034-.356.05-.165.023-.33.043-.493.075-.154.03-.305.07-.457.11-.118.028-.238.056-.354.09a8.547 8.547 0 00-.519.175c-.084.03-.169.06-.252.092-.19.076-.377.16-.561.249-.056.026-.112.052-.167.08-.2.102-.397.21-.588.326l-.096.059a9.019 9.019 0 00-.601.406l-.04.03A8.968 8.968 0 008 30a9 9 0 009 9 3 3 0 110 6C8.716 45 2 38.284 2 30c0-6.758 4.47-12.468 10.613-14.345C15.952 7.085 24.248 1 34 1s18.048 6.085 21.387 14.655C61.53 17.532 66 23.242 66 30c0 8.284-6.716 15-15 15zm-28.23-7.007l.006-.006.006-.007 8.988-9.987.008.007c.55-.61 1.337-1 2.222-1s1.673.39 2.222 1l.008-.007 8.99 9.988c0 .002.001.002.002.003l.008.009c.418.465.693 1.061.756 1.72v.006c.009.092.014.185.014.279V40a3 3 0 01-3 3c-.033 0-.065-.002-.098-.003-.02 0-.04 0-.06-.002-.02 0-.04-.003-.062-.004l-.1-.008-.034-.005a2.368 2.368 0 01-.132-.018h-.002a2.993 2.993 0 01-1.742-.953L37 37.817V53a3 3 0 11-6 0V37.818l-3.77 4.189a2.996 2.996 0 01-1.91.976l-.098.008-.065.005-.058.001L25 43a3 3 0 01-2.23-5.007z"/></svg>