<svg xmlns="http://www.w3.org/2000/svg" width="23" height="23"><path fill-rule="evenodd" fill="#e4e4e4" d="M19.454 22H4.182c-1.406 0-2.546-1.12-2.546-2.5v-15c0-1.381 1.14-2.5 2.546-2.5h15.272C20.86 2 22 3.119 22 4.5v15c0 1.38-1.14 2.5-2.546 2.5zM11.818 8.125a3.947 3.947 0 00-3.578 2.25h-.004c-.006.014-.01.029-.017.042-.037.082-.07.166-.102.252-.015.04-.032.08-.046.121a3.777 3.777 0 00-.075.265c-.011.042-.024.083-.033.126-.02.094-.035.19-.049.287-.005.04-.014.077-.018.117a3.854 3.854 0 00-.023.415c0 2.14 1.766 3.875 3.945 3.875 2.18 0 3.946-1.735 3.946-3.875 0-.14-.009-.279-.024-.415-.004-.04-.012-.078-.018-.117a3.847 3.847 0 00-.049-.287c-.009-.043-.022-.084-.032-.126a3.698 3.698 0 00-.076-.265l-.045-.121a3.775 3.775 0 00-.103-.252c-.006-.013-.01-.028-.017-.042h-.004a3.947 3.947 0 00-3.578-2.25zM19.71 5.25c0-.552-.456-1-1.018-1h-2.036a1.01 1.01 0 00-1.019 1v2c0 .552.456 1 1.019 1h2.036a1.01 1.01 0 001.018-1v-2zm0 5.125h-1.877A6.01 6.01 0 0118.055 12c0 3.382-2.792 6.125-6.236 6.125S5.582 15.382 5.582 12c0-.563.077-1.108.222-1.625H3.927v8.375c0 .552.456 1 1.018 1h13.746a1.01 1.01 0 001.018-1v-8.375z"/></svg>