<svg xmlns="http://www.w3.org/2000/svg" width="24" height="20"><path fill-rule="evenodd" fill="#e4e4e4" d="M15.85 1.876c1.62-.028 2.48.55 3.303 1.287.698-.059 1.606-.442 2.14-.708l.52-.28c-.305.81-.72 1.445-1.355 1.926-.142.107-.282.252-.459.32v.01c.907-.01 1.654-.411 2.365-.63v.01c-.373.583-.878 1.174-1.417 1.597l-.652.51c.012.942-.015 1.842-.194 2.634-1.043 4.606-3.808 7.732-8.184 9.072-1.572.481-4.111.679-5.912.24-.892-.218-1.699-.464-2.456-.789a9.83 9.83 0 01-1.182-.599L2 16.257c.406.012.881.122 1.335.05.41-.066.814-.048 1.193-.13.945-.203 1.784-.473 2.507-.888.35-.201.882-.438 1.131-.729a3.603 3.603 0 01-1.243-.22c-1.352-.468-2.138-1.33-2.65-2.624.41.044 1.589.149 1.865-.08-.516-.028-1.011-.32-1.366-.539-1.087-.668-1.974-1.789-1.967-3.513l.428.2c.273.113.55.174.877.24.137.027.412.107.57.05h-.02c-.21-.241-.553-.401-.764-.66-.698-.851-1.351-2.161-.938-3.722a4.74 4.74 0 01.448-1.068l.02.01c.082.167.263.29.378.43.356.433.796.823 1.243 1.167 1.526 1.172 2.9 1.892 5.107 2.425.56.135 1.206.239 1.875.24-.188-.538-.128-1.407.02-1.927.372-1.307 1.18-2.25 2.365-2.754a5.13 5.13 0 01.927-.28l.51-.06z"/></svg>